<svg xmlns="http://www.w3.org/2000/svg" width="1921.999" height="1732.001" viewBox="0 0 1921.999 1732.001">
  <path id="Subtração_4" data-name="Subtração 4" d="M613.617,2260.5H326.5V1798.042a546.11,546.11,0,0,0,50.414,27.738c17.93,8.717,36.759,16.892,55.963,24.3,18.563,7.161,38.024,13.816,57.844,19.78,19.087,5.744,39.068,11.016,59.386,15.67,19.495,4.464,39.882,8.491,60.594,11.969,19.8,3.323,40.479,6.244,61.469,8.68,19.975,2.318,40.837,4.269,62.006,5.8,20.007,1.448,40.938,2.569,62.21,3.333,19.9.714,40.783,1.142,62.076,1.274,4.763.029,9.5.043,14.088.043,31.312,0,62.425-.657,92.475-1.954,31.361-1.352,62.448-3.437,92.4-6.2,31.175-2.874,62.01-6.557,91.65-10.948,30.753-4.558,61.112-10.01,90.233-16.206,30.146-6.416,59.8-13.807,88.151-21.971,29.28-8.431,58.011-17.932,85.4-28.24,28.237-10.63,55.818-22.412,81.976-35.018,13.371-6.444,26.661-13.244,39.5-20.209,12.982-7.044,25.9-14.478,38.39-22.094a738.82,738.82,0,0,0,73.822-51.462,725.332,725.332,0,0,0,66.429-59.619,687.043,687.043,0,0,0,57.653-66.584,631.032,631.032,0,0,0,47.49-72.36c28.618-51.07,48.45-103.989,58.943-157.289,11.034-56.042,11.593-111.932,1.662-166.118a508.83,508.83,0,0,0-12.509-52.019c-4.741-16.14-10.363-32.814-17.188-50.976-12.677-33.724-27.678-67.534-42.184-100.232l-.008-.018,0-.01-.021-.048-.016-.036c-11.27-25.4-22.924-51.671-33.451-77.817-5.661-14.063-10.546-26.953-14.934-39.407-4.928-13.992-9.1-27.057-12.754-39.939a403.561,403.561,0,0,1-10.36-47.188,395.633,395.633,0,0,1-4.616-48.557,361.24,361.24,0,0,1,1.647-48.514,313.531,313.531,0,0,1,8.429-47.053c8.34-31.873,21.562-60.154,39.3-84.057,3.846-5.183,7.959-10.226,12.227-14.988h420.281c4.287,2.47,8.6,5.023,12.811,7.586,7.392,4.5,14.84,9.24,22.136,14.1V1675.21c-8.2,5.74-16.683,11.509-25.226,17.148-12.374,8.168-25.37,16.4-38.627,24.462-24.815,15.091-51.723,30.309-79.978,45.23-33.25,17.562-67.707,34.386-102.413,50.008-34.563,15.554-70.211,30.292-105.955,43.8-35.661,13.482-72.343,26.095-109.026,37.489-36.622,11.375-74.178,21.823-111.625,31.055s-75.726,17.477-113.752,24.5c-38.071,7.037-76.9,13.038-115.408,17.838-38.578,4.807-77.8,8.527-116.591,11.055-38.909,2.536-78.375,3.934-117.3,4.156-4.153.023-8.326.035-12.4.035-20.861,0-42.059-.275-62.558-.54l-.274,0-.137,0h-.189l-.205,0c-20.541-.266-41.782-.542-62.679-.542-28.787,0-52.587.516-74.9,1.625-26.9,1.336-51.218,3.533-74.327,6.719a577.1,577.1,0,0,0-70.48,14.116,461.579,461.579,0,0,0-67.058,23.432c-45.663,20.221-82.634,46.73-109.885,78.789a245.514,245.514,0,0,0-18.647,25.029,257.605,257.605,0,0,0-15.177,26.742,278.258,278.258,0,0,0-11.928,28.156c-3.39,9.394-6.386,19.242-8.905,29.27a353.071,353.071,0,0,0-8.226,45.721Zm467.311-518.139h-.023c-16.008,0-32.338-.642-48.536-1.91-16.006-1.254-32.259-3.144-48.308-5.619a686.981,686.981,0,0,1-94.839-21.684,711.242,711.242,0,0,1-174.9-80.463c-26.235-16.737-51.736-35.374-76.4-53.4l-.008-.006-.032-.023c-23.285-17.019-47.363-34.618-72-50.565-13.231-8.565-25.566-15.984-37.711-22.679-13.623-7.508-26.639-13.909-39.791-19.571a315.24,315.24,0,0,0-59.188-18.727,301.043,301.043,0,0,0-62.236-6.7,248.742,248.742,0,0,0-40.46,3.214V1183.455a534.212,534.212,0,0,0,81.268-11.639,642.107,642.107,0,0,0,78.064-22.566c22.683-8.116,47.04-17.946,74.464-30.051,24.428-10.784,48.924-22.314,72.613-33.465l.029-.013.008,0,.062-.029.021-.01.057-.027c27.84-13.1,56.624-26.652,85.4-39.041,15.485-6.667,29.745-12.482,43.6-17.775,15.537-5.936,30.136-11.059,44.631-15.66,17.924-5.69,36.427-10.756,54.994-15.059,18.45-4.275,37.4-7.9,56.308-10.763,18.83-2.854,38.079-5.028,57.214-6.461,19.086-1.43,38.5-2.155,57.711-2.155a776.066,776.066,0,0,1,105.505,7.215c17.429,2.4,34.955,5.438,52.092,9.028,17.219,3.607,34.46,7.862,51.243,12.646,20.048,5.714,39.537,12.225,57.924,19.353a555.232,555.232,0,0,1,55.314,24.893,456.028,456.028,0,0,1,51.168,30.9,376.1,376.1,0,0,1,45.488,37.368,320.477,320.477,0,0,1,63.655,86.65,329.69,329.69,0,0,1,19.812,48.838,337.394,337.394,0,0,1,11.219,154.96,330.7,330.7,0,0,1-12.37,50.693,322.3,322.3,0,0,1-20.445,48.322,371.506,371.506,0,0,1-62.406,85.628,446.4,446.4,0,0,1-85.059,68.216,512.933,512.933,0,0,1-101.408,48.38,538.012,538.012,0,0,1-111.449,26.121A589.887,589.887,0,0,1,1080.928,1742.362ZM902.421,890.221H902.4c-54.179,0-111.032-11.9-168.981-35.356a625.948,625.948,0,0,1-78.711-38.723,723.8,723.8,0,0,1-72.076-47.9c-12.316-9.277-24.781-19.074-36.837-28.548l-.04-.031-.01-.008-.006-.006C479.521,687.61,411.043,633.8,326.5,628.893V529.5H1388.2a554.032,554.032,0,0,1,59.652,28.981c10.122,5.72,20,11.775,29.37,18,9.549,6.344,18.821,13.033,27.559,19.882,8.9,6.98,17.495,14.317,25.537,21.809,8.182,7.622,16.026,15.621,23.313,23.776,7.411,8.3,14.435,16.974,20.877,25.786a324.622,324.622,0,0,1,18.239,27.835,179.761,179.761,0,0,1,9.659,19.1A176.491,176.491,0,0,1,1609.787,735a156.258,156.258,0,0,1,4.652,20.9,128.9,128.9,0,0,1,1.467,20.754c-.193,14.312-3.034,27.2-8.443,38.3a70.834,70.834,0,0,1-26.649,29.392,83.455,83.455,0,0,1-24.2,10.086,111.349,111.349,0,0,1-26.693,3.077,158.272,158.272,0,0,1-33.406-3.8,207.261,207.261,0,0,1-32.2-9.877c-14.966-5.926-29.581-13.165-43.715-20.165l-.028-.014-.021-.011-.025-.014-.027-.013c-10.575-5.237-21.51-10.652-32.522-15.479a258.671,258.671,0,0,0-33.946-12.415,213.844,213.844,0,0,0-29.658-6.078,225.673,225.673,0,0,0-29.426-1.9c-7.643,0-15.53.375-23.442,1.114-7.545.7-15.4,1.761-23.347,3.15a397.216,397.216,0,0,0-46.516,11.265c-13.882,4.184-29.075,9.409-46.446,15.976-15.529,5.871-31.247,12.214-46.447,18.349l-.1.041-.015.006-.007,0-.008,0-.007,0-.047.019c-23.7,9.562-48.2,19.45-72.646,27.856-13.179,4.531-25.242,8.264-36.877,11.414-13.08,3.542-25.3,6.264-37.346,8.321-9.721,1.659-19.686,2.917-29.618,3.738C922.337,889.813,912.359,890.221,902.421,890.221Z" transform="translate(-326 -529)" fill="#373852" stroke="rgba(0,0,0,0)" stroke-width="1" opacity="0.2"/>
</svg>
