<svg xmlns="http://www.w3.org/2000/svg" width="404.057" height="395.316" viewBox="0 0 404.057 395.316">
  <g id="_493398-PHFWXU-195" data-name="493398-PHFWXU-195" transform="translate(-54.971 -26.156)">
    <g id="Objects">
      <g id="Grupo_411" data-name="Grupo 411">
        <path id="Caminho_9224" data-name="Caminho 9224" d="M60.455,149.186l111.484-.348-28.438-5.8s1.16-31.92-12.769-25.536a24.835,24.835,0,0,0-14.509,20.313s-5.224-12.768-12.769-8.125-11.027,12.768-11.027,12.768-2.708-9.187-7.545-9.708c-4.135-.446-12,8.293-16.126,13.208Z" fill="#ddcaca" opacity="0.33"/>
        <path id="Caminho_9225" data-name="Caminho 9225" d="M367.062,200.969l91.966-.258L435.569,196.4s.957-23.717-10.533-18.973-11.969,15.092-11.969,15.092-4.309-9.487-10.533-6.037a23.777,23.777,0,0,0-9.1,9.486s-2.234-6.825-6.224-7.212c-3.411-.331-9.9,6.161-13.3,9.813Z" fill="#ddcaca" opacity="0.33"/>
        <path id="Caminho_9226" data-name="Caminho 9226" d="M217.449,69.18l91.966-.287-23.459-4.788s.957-26.332-10.533-21.065A20.485,20.485,0,0,0,263.454,59.8s-4.309-10.533-10.533-6.7a25.679,25.679,0,0,0-9.1,10.533s-2.234-7.579-6.224-8.009c-3.411-.367-9.9,6.841-13.3,10.9Z" fill="#ddcaca" opacity="0.33"/>
      </g>
      <g id="Grupo_435" data-name="Grupo 435">
        <path id="Caminho_9227" data-name="Caminho 9227" d="M379.229,53.259l-6.994,2.428L369.2,46.95a30.923,30.923,0,1,0-58.426,20.282l3.033,8.737L306.792,78.4A10.569,10.569,0,0,0,300.3,91.8l19.737,56.854a10.6,10.6,0,0,0,13.428,6.586L405.9,130.093a10.624,10.624,0,0,0,6.553-13.521L392.718,59.717A10.6,10.6,0,0,0,379.229,53.259ZM323.976,62.65A16.944,16.944,0,1,1,355.99,51.536l3.033,8.737L327.009,71.387Zm41.981,51.821L371,128.99a1.157,1.157,0,0,1-.773,1.459l-6.951,2.413a1.139,1.139,0,0,1-1.427-.695L356.8,117.648a13.509,13.509,0,1,1,9.152-3.177Z" fill="#0e859a"/>
        <path id="Caminho_9228" data-name="Caminho 9228" d="M331.317,334.131c-1.721-3.354,2.309-6.946,6.02-7.609s7.914-.155,10.869-2.5c3.946-3.125,3.744-9.939,8.116-12.434,3.509-2,8.155-.092,11.872-1.674,4.618-1.967,5.917-8.4,10.448-10.561,3.612-1.722,8.335.224,10.178,3.775s1,8.142-1.56,11.22c-2,2.408-4.959,4.1-6.2,6.967-1.945,4.5,1.125,9.948-.665,14.51-3.305,8.424-18.92,5.888-21.633,14.522-.6,1.922-.349,3.994-.507,6-.468,5.975-4.68,11.194-9.882,14.17s-11.288,4.009-17.267,4.427c-2.443.171-5.018.221-7.2-.9a11.783,11.783,0,0,1-4.588-5.035c-7.18-13.026-10.14-30,11.995-34.886" fill="#78ba9a"/>
        <path id="Caminho_9229" data-name="Caminho 9229" d="M216.154,327.208c3.861-2.552,1.714-8.82-1.856-11.764s-8.372-4.932-10.124-9.216c-2.338-5.719,1.982-12.887-1.192-18.188-2.547-4.255-8.667-5.009-11.69-8.94-3.756-4.885-1.27-12.55-4.816-17.589-2.826-4.017-9.05-4.78-13.161-2.091s-5.968,8.108-5.088,12.941c.689,3.779,2.838,7.366,2.437,11.186-.628,5.982-7.194,9.964-8.027,15.921-1.538,11,16.692,17.693,14.394,28.561-.512,2.42-2.031,4.483-3.073,6.727-3.1,6.672-1.735,14.792,2.037,21.108s9.66,11.086,15.8,15.133c2.51,1.654,5.234,3.259,8.238,3.372,2.827.106,5.534-1.133,7.939-2.622,15.525-9.609,28.914-25.984,8.179-44.539" fill="#ffa938"/>
        <g id="Grupo_413" data-name="Grupo 413">
          <g id="Grupo_412" data-name="Grupo 412">
            <path id="Caminho_9230" data-name="Caminho 9230" d="M317.449,341c5.4-2.329,10.262-6.636,14.294-10.8,10.873-11.223,17.614-25.88,21.159-40.968,3.208-13.653,3.924-27.77,3.253-41.743-.057-1.183-1.9-1.19-1.846,0,1.506,31.392-4.727,69.915-32.822,89.023a30.539,30.539,0,0,1-4.97,2.89c-1.088.47-.148,2.061.932,1.6Z" fill="#e1806d"/>
          </g>
          <path id="Caminho_9231" data-name="Caminho 9231" d="M353.156,283.956s1.779-10.17,15.253-11.78C368.409,272.176,363.494,284.211,353.156,283.956Z" fill="#e1806d"/>
          <path id="Caminho_9232" data-name="Caminho 9232" d="M348.739,298.987s4.1-9.473,17.582-7.893C366.321,291.094,358.732,301.649,348.739,298.987Z" fill="#e1806d"/>
          <path id="Caminho_9233" data-name="Caminho 9233" d="M343.015,312.235s6.123-8.312,18.9-3.753C361.918,308.482,352.157,317.069,343.015,312.235Z" fill="#e1806d"/>
          <path id="Caminho_9234" data-name="Caminho 9234" d="M355.225,268.165s1.749-10,14.994-11.58C370.219,256.585,365.388,268.416,355.225,268.165Z" fill="#e1806d"/>
          <path id="Caminho_9235" data-name="Caminho 9235" d="M355.4,250.791s-7.542-6.792-1.848-18.855C353.557,231.936,361.015,242.314,355.4,250.791Z" fill="#e1806d"/>
          <path id="Caminho_9236" data-name="Caminho 9236" d="M355.451,261.1s-9.98-1.842-11.44-15.1C344.011,245.995,355.8,250.936,355.451,261.1Z" fill="#e1806d"/>
          <path id="Caminho_9237" data-name="Caminho 9237" d="M354.456,276.327s-9.981-1.842-11.441-15.1C343.015,261.226,354.8,266.167,354.456,276.327Z" fill="#e1806d"/>
          <path id="Caminho_9238" data-name="Caminho 9238" d="M351.864,290.592s-9.827-2.537-10.353-15.866C341.511,274.726,352.921,280.481,351.864,290.592Z" fill="#e1806d"/>
          <path id="Caminho_9239" data-name="Caminho 9239" d="M347.336,304.843s-9.827-2.537-10.354-15.866C336.982,288.977,348.393,294.732,347.336,304.843Z" fill="#e1806d"/>
        </g>
        <g id="Grupo_434" data-name="Grupo 434">
          <rect id="Retângulo_66" data-name="Retângulo 66" width="143.42" height="281.222" rx="21.148" transform="translate(196.892 95.561)" fill="#0e6077"/>
          <rect id="Retângulo_67" data-name="Retângulo 67" width="130.178" height="263.013" rx="14.811" transform="translate(203.513 103.83)" fill="#efebeb"/>
          <path id="Caminho_9240" data-name="Caminho 9240" d="M307.555,103.83h-8.466a4.7,4.7,0,0,0-4.7,4.7v3.361a4.7,4.7,0,0,1-4.7,4.7H251.929a4.7,4.7,0,0,1-4.7-4.7v-3.361a4.7,4.7,0,0,0-4.7-4.7h-24.04v-2.413h89.072Z" fill="#0e6077"/>
          <g id="Grupo_433" data-name="Grupo 433">
            <g id="Grupo_432" data-name="Grupo 432">
              <g id="Grupo_414" data-name="Grupo 414">
                <path id="Caminho_9241" data-name="Caminho 9241" d="M272.219,144.365a1.753,1.753,0,1,0-1.639,0,2.744,2.744,0,0,0-1.915,2.607v1.379h5.469v-1.379A2.744,2.744,0,0,0,272.219,144.365Z" fill="#37366a"/>
                <text id="Create_Account" data-name="Create Account" transform="translate(248.069 158.038)" fill="#37366a" font-size="6.027" font-family="Helvetica"><tspan x="0" y="0">Create Account</tspan></text>
              </g>
              <g id="Grupo_415" data-name="Grupo 415">
                <rect id="Retângulo_68" data-name="Retângulo 68" width="54.169" height="12.163" rx="0.979" transform="translate(240.84 316.106)" fill="#a43f60"/>
                <text id="Register" transform="translate(258.579 323.508)" fill="#f3f4e9" font-size="4.489" font-family="Helvetica"><tspan x="0" y="0">Register</tspan></text>
              </g>
              <g id="Grupo_416" data-name="Grupo 416">
                <text id="Email_Address" data-name="Email Address" transform="translate(221.857 174.382)" fill="#37366a" font-size="4.101" font-family="Helvetica" opacity="0.57"><tspan x="0" y="0">Email Address</tspan></text>
                <text id="youremail_gmail.c" data-name="youremail@gmail.c" transform="translate(226.468 187.77)" fill="#37366a" font-size="4.101" font-family="Helvetica"><tspan x="0" y="0">youremail@gmail.c</tspan></text>
                <rect id="Retângulo_69" data-name="Retângulo 69" width="99.084" height="14.93" rx="2.759" transform="translate(221.857 178.841)" fill="none" stroke="#37366a" stroke-miterlimit="10" stroke-width="0.5"/>
              </g>
              <g id="Grupo_421" data-name="Grupo 421">
                <g id="Grupo_420" data-name="Grupo 420">
                  <g id="Grupo_417" data-name="Grupo 417" opacity="0.52">
                    <text id="Country" transform="translate(221.857 207.614)" fill="#37366a" font-size="4.101" font-family="Helvetica"><tspan x="0" y="0">Country</tspan></text>
                  </g>
                  <g id="Grupo_419" data-name="Grupo 419">
                    <g id="Grupo_418" data-name="Grupo 418">
                      <text id="Your_text" data-name="Your text" transform="translate(226.468 220.872)" fill="#37366a" font-size="4.101" font-family="Helvetica"><tspan x="0" y="0">Your text</tspan></text>
                    </g>
                    <rect id="Retângulo_70" data-name="Retângulo 70" width="99.084" height="14.93" rx="2.759" transform="translate(221.857 212.201)" fill="none" stroke="#37366a" stroke-miterlimit="10" stroke-width="0.5"/>
                  </g>
                </g>
              </g>
              <g id="Grupo_426" data-name="Grupo 426">
                <g id="Grupo_425" data-name="Grupo 425">
                  <g id="Grupo_422" data-name="Grupo 422" opacity="0.52">
                    <text id="City" transform="translate(221.857 242.702)" fill="#37366a" font-size="4.101" font-family="Helvetica"><tspan x="0" y="0">City</tspan></text>
                  </g>
                  <g id="Grupo_424" data-name="Grupo 424">
                    <g id="Grupo_423" data-name="Grupo 423">
                      <text id="Your_City" data-name="Your City" transform="translate(226.468 255.961)" fill="#37366a" font-size="4.101" font-family="Helvetica"><tspan x="0" y="0">Your City</tspan></text>
                    </g>
                    <rect id="Retângulo_71" data-name="Retângulo 71" width="99.084" height="14.93" rx="2.759" transform="translate(221.857 247.291)" fill="none" stroke="#37366a" stroke-miterlimit="10" stroke-width="0.5"/>
                  </g>
                </g>
              </g>
              <g id="Grupo_431" data-name="Grupo 431">
                <g id="Grupo_430" data-name="Grupo 430">
                  <g id="Grupo_427" data-name="Grupo 427" opacity="0.52">
                    <text id="Password" transform="translate(221.857 277.962)" fill="#37366a" font-size="4.101" font-family="Helvetica"><tspan x="0" y="0">Password</tspan></text>
                  </g>
                  <g id="Grupo_429" data-name="Grupo 429">
                    <g id="Grupo_428" data-name="Grupo 428">
                      <text id="Entry_password" data-name="Entry password" transform="translate(226.468 291.22)" fill="#37366a" font-size="4.101" font-family="Helvetica"><tspan x="0" y="0">Entry password</tspan></text>
                    </g>
                    <rect id="Retângulo_72" data-name="Retângulo 72" width="99.084" height="14.93" rx="2.759" transform="translate(221.857 282.549)" fill="none" stroke="#37366a" stroke-miterlimit="10" stroke-width="0.5"/>
                  </g>
                </g>
              </g>
            </g>
            <line id="Linha_24" data-name="Linha 24" y2="5.268" transform="translate(267.057 182.867)" fill="none" stroke="#50c3e2" stroke-miterlimit="10" stroke-width="0.5"/>
          </g>
        </g>
      </g>
      <g id="Grupo_442" data-name="Grupo 442">
        <path id="Caminho_9242" data-name="Caminho 9242" d="M318.234,419.364c0-1.164-28.536-2.108-63.737-2.108s-63.738.944-63.738,2.108,28.536,2.108,63.738,2.108S318.234,420.528,318.234,419.364Z" fill="#6756ad" opacity="0.25"/>
        <g id="Grupo_441" data-name="Grupo 441">
          <path id="Caminho_9243" data-name="Caminho 9243" d="M261.228,284.5s6.334,9.781,7.768,5.542,2.311-6.832,2.311-6.832-1.8-2.949-2.751-2.042c-1,.949-2.288-.776-2.288-.776Z" fill="#f5ba9a"/>
          <g id="Grupo_436" data-name="Grupo 436">
            <path id="Caminho_9244" data-name="Caminho 9244" d="M292.534,233.923l2.617-15.2c1.717-.554,3.485-1.881,2.879-3.935a3.018,3.018,0,0,0-2.051-1.926c-.356-.135-2.185-.66-2.313.045,0-.01,1-5.477,1-5.477l-17.822-8.6L275.2,209.867a5.439,5.439,0,0,0-1.97-.539,2.986,2.986,0,0,0-2.119,1.714,3.531,3.531,0,0,0,3.107,4.717s.3,4.894,1.44,6.63,6.375,2.936,6.375,2.936l-.575,6.616Z" fill="#f5ba9a"/>
          </g>
          <g id="Grupo_437" data-name="Grupo 437">
            <path id="Caminho_9245" data-name="Caminho 9245" d="M298.553,235.169c-8.053-2.26-19.365-4.249-19.365-4.249l-7.5,53.442,31.613-.976Z" fill="#ffa938"/>
          </g>
          <g id="Grupo_438" data-name="Grupo 438">
            <path id="Caminho_9246" data-name="Caminho 9246" d="M298.553,235.169a209.14,209.14,0,0,0,31.711,5.955c-2.408-10.953-3.726-19.327-6.873-28.631,3.005-.761,8.868-2.26,11.873-3.02,0,0,9.957,34.687,6.935,39.312-5.143,7.87-30.757,2.688-30.757,2.688l-12.116-2.16Z" fill="#ffa938"/>
          </g>
          <g id="Grupo_439" data-name="Grupo 439">
            <path id="Caminho_9247" data-name="Caminho 9247" d="M244.411,246.934s33.934-16.6,35.494-15.987,2.885,8.306,2.885,8.306a299.162,299.162,0,0,1-31.324,16.668l17.3,23.551-8.62,6.183s-23.758-26.7-22.855-32.221C237.99,249.175,244.411,246.934,244.411,246.934Z" fill="#ffa938"/>
          </g>
          <path id="Caminho_9248" data-name="Caminho 9248" d="M334.752,209.6s-1.4-9.817-1.572-10.1-.168-2.013-2.689-1.6c0,0-.168-3.111-1.624-3.167a13.186,13.186,0,0,0-3.081.337s-1.64-7.976-2.7-9.358c-1.162-1.511-2.786,2.467-.266,12.188,0,0,1.4,6.612.981,6.855-1.128.658-2.679.538-4.825-3.131-2.278-3.9-5.119-2.577-3.718.448s3.385,6.939,4.673,8,4.01.9,4.01.9l.4,1.264Z" fill="#f5ba9a"/>
          <g id="Grupo_440" data-name="Grupo 440">
            <path id="Caminho_9249" data-name="Caminho 9249" d="M303.3,283.386c-3.807,57.831-16.735,129.2-16.735,129.2l12.661,5.359H272.261l17.684-126.211h-6.058L239.153,418.029H212.22l15.323-5.587,44.718-132.188Z" fill="#04252b"/>
          </g>
          <path id="Caminho_9250" data-name="Caminho 9250" d="M296.812,213.268c1.507-3.013,3.27-10.327-1.305-12.36a47.015,47.015,0,0,1-6.655-3.792,11.593,11.593,0,0,0-9.488-1.711,8.717,8.717,0,0,0-1.5.562c-3.194,1.568-5.351,10.055-5.351,10.055l3.139.786s3.5,15.567,9.259,18.766l5.752,1.218,3.4.765Z" fill="#b96944"/>
          <path id="Caminho_9251" data-name="Caminho 9251" d="M292.344,199.829a20.278,20.278,0,0,0-.108-2.788" fill="none" stroke="#b96944" stroke-miterlimit="10" stroke-width="0.05"/>
          <path id="Caminho_9252" data-name="Caminho 9252" d="M292.491,199.69a.783.783,0,0,0,.347-.431,10.811,10.811,0,0,1,1.227-1.988" fill="none" stroke="#b96944" stroke-miterlimit="10" stroke-width="0.05"/>
        </g>
      </g>
      <g id="Grupo_466" data-name="Grupo 466">
        <path id="Caminho_9253" data-name="Caminho 9253" d="M182.447,404.021c0-1.164-28.536-2.108-63.738-2.108s-63.738.944-63.738,2.108,28.537,2.109,63.738,2.109S182.447,405.186,182.447,404.021Z" fill="#6756ad" opacity="0.25"/>
        <g id="Grupo_465" data-name="Grupo 465">
          <path id="Caminho_9254" data-name="Caminho 9254" d="M140.638,182.744a29.178,29.178,0,0,0-3.842-.459c-2.281-.212-4.362,1.266-6.089,2.771a20.037,20.037,0,0,0-4.088,5.481c-1.142,2.044-2.208,4.411-1.534,6.652a5.88,5.88,0,0,1,.447,1.721c-.024,1.854-2.579,2.553-3.378,4.226-.988,2.067,1.028,4.851-.338,6.69-.683.917-2,1.206-2.642,2.15a4.224,4.224,0,0,0-.446,2.606.54.54,0,0,0,.592.654c7.3.7,14.526-.877,21.827-.176a9.325,9.325,0,0,0,6.25-1.138c6.31-2.876,12.627-3.621,18.793-6.795a1.389,1.389,0,0,0,.662-.542,1.184,1.184,0,0,0,.074-.655A4.307,4.307,0,0,0,164,202.344c-1.607-.5-3.533-.063-4.874-1.081a4.533,4.533,0,0,1-1.447-3.232c-.258-2.454.021-5.294-1.756-7.006-1.391-1.341-3.624-1.487-5.021-2.822a17.921,17.921,0,0,1-1.867-2.714c-1.881-2.617-5.084-4.136-8.4-2.745" fill="#594656"/>
          <g id="Grupo_443" data-name="Grupo 443">
            <path id="Caminho_9255" data-name="Caminho 9255" d="M128.438,267.1l-40.7,128.781-16.016,6.176H95.5l45.946-121.328a2,2,0,0,1,1.874-1.294h0a2,2,0,0,1,1.993,2.217L133.2,402.061h24.059L141.2,396.749s14.967-70.013,18.3-91.919-1.5-37.386-1.5-37.386S142.4,262.5,128.438,267.1Z" fill="#04252b"/>
          </g>
          <g id="Grupo_444" data-name="Grupo 444">
            <path id="Caminho_9256" data-name="Caminho 9256" d="M128.914,220.754c3.731-3.9,18.559-4.345,23.919-2.144s15.223,30.676,15.223,30.676l-9.809,3.851-6.086-23.806L133.085,226.7Z" fill="#e1806d"/>
          </g>
          <g id="Grupo_445" data-name="Grupo 445">
            <path id="Caminho_9257" data-name="Caminho 9257" d="M153.977,232.828a31.59,31.59,0,0,0,2.028-6.984c.356-3.042-3.78-6.017-3.78-6.017l-22.444,5.816,1.395,13.369-3.293,27.012,28.518,1.06-2.866-34.143" fill="#e1806d"/>
          </g>
          <g id="Grupo_446" data-name="Grupo 446">
            <path id="Caminho_9258" data-name="Caminho 9258" d="M131.49,233.6a.448.448,0,0,1-.273-.091.455.455,0,0,1-.092-.638l1.6-2.125a.456.456,0,1,1,.729.547l-1.594,2.125A.457.457,0,0,1,131.49,233.6Z" fill="#5d95ba"/>
          </g>
          <g id="Grupo_447" data-name="Grupo 447">
            <path id="Caminho_9259" data-name="Caminho 9259" d="M117.244,270.626l5.145-2.995" fill="#8fcaec"/>
          </g>
          <g id="Grupo_448" data-name="Grupo 448">
            <path id="Caminho_9260" data-name="Caminho 9260" d="M139.459,217.538c-.312-2.981,1.213-6-3.6-7.931-6.63-2.655-8.052-25.516,3.924-25.567s11.388,15.038,11.34,19.518-3.993,5.621-4.979,7.243-.134,6.737-.134,6.737Z" fill="#f5ba9a"/>
          </g>
          <g id="Grupo_449" data-name="Grupo 449">
            <path id="Caminho_9261" data-name="Caminho 9261" d="M132.665,200.225a2.323,2.323,0,1,1-2.3-2.659A2.5,2.5,0,0,1,132.665,200.225Z" fill="#f5ba9a"/>
          </g>
          <g id="Grupo_450" data-name="Grupo 450">
            <ellipse id="Elipse_58" data-name="Elipse 58" cx="2.299" cy="2.659" rx="2.299" ry="2.659" transform="translate(149.551 195.512)" fill="#f5ba9a"/>
          </g>
          <path id="Caminho_9262" data-name="Caminho 9262" d="M201.434,246.575l-3.551-9-100.4,39.414a21.423,21.423,0,1,0,4,10.06l76.46-30.964,4.2,9.236,9.326-4.272-3.283-7.349,3.022-1.6,3.555,7.07,6.671-3.562-3.7-7.539ZM80.372,303.489A13.859,13.859,0,1,1,94.231,289.63,13.859,13.859,0,0,1,80.372,303.489Z" fill="#0e859a"/>
          <g id="Grupo_451" data-name="Grupo 451">
            <path id="Caminho_9263" data-name="Caminho 9263" d="M128.914,220.754s-25.314,22.539-25.453,26.722,14.915,26.189,14.915,26.189l7.525-4.758-10.539-19.728,17.146-16.351s.562,3.8,1.933,4.833l.764-15.041Z" fill="#e1806d"/>
          </g>
          <path id="Caminho_9264" data-name="Caminho 9264" d="M148.724,189.3c-3.291.169-17.875,1.653-17.875,1.653s2.133-8.755,8.938-9.1C148.724,181.4,148.724,189.3,148.724,189.3Z" fill="#594656"/>
          <path id="Caminho_9265" data-name="Caminho 9265" d="M130.867,198.542s11.818-1.107,13.889-6.685c0,0,3.924,5.016,6.222,4.765,0,0,.377-6.6-1.052-7.494s-19.56.949-19.56.949A28.8,28.8,0,0,0,130.867,198.542Z" fill="#594656"/>
          <path id="Caminho_9266" data-name="Caminho 9266" d="M118.692,273.4s3.229,6.807,3.414,6.973.575,1.422,2.31.551c0,0,.823,2.22,1.892,1.933a10.055,10.055,0,0,0,2.16-.938s1.3,1.727,2.258.814c1.123-1.067.06-2.251-.741-3.537,0,0-2.5-4.483-2.254-4.753.67-.731,1.822-.993,4.205,1.186,2.531,2.315,4.295.717,2.6-1.162s-4.019-4.273-5.193-4.755a5.376,5.376,0,0,0-3.113.246l-.575-.826Z" fill="#f5ba9a"/>
          <path id="Caminho_9267" data-name="Caminho 9267" d="M170.446,259.124s-1.813,5.152-4.979,6.018-20.922,4.471-20.922,4.471v-7.022Z" fill="#e1806d"/>
          <path id="Caminho_9268" data-name="Caminho 9268" d="M144.545,263.432h-1.353a9.039,9.039,0,0,0-.495-1.261c-.555-.9-7.987-1.847-7.851-.874s1.359,1.213,3.979,1.7c0,0-9.8,2.377-8.88,3.154s7.036-1.008,7.036-1.008-6.633,2.157-6.163,3.628c.269.843,6.991-1.139,6.991-1.139s-6.845,2.45-5.632,3.274,8.783-1.032,9.511-1.292,1.009-1.668,1.009-1.668l1.848-.314Z" fill="#f5ba9a"/>
          <g id="Grupo_452" data-name="Grupo 452">
            <path id="Caminho_9269" data-name="Caminho 9269" d="M138.964,179.175a10.807,10.807,0,0,0,.991,3.382c.258.393.893.026.633-.37a10.474,10.474,0,0,1-.917-3.207c-.11-.458-.817-.264-.707.2Z" fill="#594656"/>
          </g>
          <g id="Grupo_453" data-name="Grupo 453">
            <path id="Caminho_9270" data-name="Caminho 9270" d="M140.557,182.624q.561-1,1.2-1.947c.264-.392-.37-.759-.633-.37q-.642.949-1.2,1.947a.366.366,0,0,0,.632.37Z" fill="#594656"/>
          </g>
          <g id="Grupo_454" data-name="Grupo 454">
            <path id="Caminho_9271" data-name="Caminho 9271" d="M141.975,198.034a16.823,16.823,0,0,0,.092,2.519c.05.429.009,1.2.307,1.522.17.186.527.174.743.207.8.125,1.614.217,2.419.325l-.129-.313a7.485,7.485,0,0,1-2.292,1.5c-.216.092-.03.408.185.316a7.76,7.76,0,0,0,2.366-1.553.186.186,0,0,0-.13-.313c-.84-.112-2.551-.017-2.987-.9a8.383,8.383,0,0,1-.208-3.3c.008-.236-.358-.236-.366,0Z" fill="#f49e78"/>
          </g>
          <g id="Grupo_455" data-name="Grupo 455">
            <path id="Caminho_9272" data-name="Caminho 9272" d="M145.737,200.554c.106-.836-.426-2.792.627-3.2.937-.359,1.527.419,1.674,1.209.092.495.181.992.271,1.487.042.232.395.134.353-.1-.221-1.215-.273-3.293-2.085-3.046-1.686.23-1.071,2.568-1.206,3.643-.03.234.337.231.366,0Z" fill="#514540"/>
          </g>
          <g id="Grupo_456" data-name="Grupo 456">
            <path id="Caminho_9273" data-name="Caminho 9273" d="M136.281,201.055c.1-.836-.427-2.793.627-3.2.936-.359,1.527.419,1.674,1.209.092.495.18.992.271,1.488.042.231.4.133.353-.1-.221-1.215-.273-3.293-2.085-3.046-1.687.231-1.071,2.568-1.207,3.644-.029.233.338.231.367,0Z" fill="#514540"/>
          </g>
          <g id="Grupo_457" data-name="Grupo 457">
            <path id="Caminho_9274" data-name="Caminho 9274" d="M138.778,203.18c.394,3.049,5.557,3.66,7.454,1.81.169-.165-.09-.424-.259-.259-1.584,1.544-6.475,1.184-6.828-1.551-.03-.231-.4-.234-.367,0Z" fill="#f49e78"/>
          </g>
          <g id="Grupo_458" data-name="Grupo 458">
            <path id="Caminho_9275" data-name="Caminho 9275" d="M138.705,203.692a.7.7,0,0,1,.771-.476c.231.039.33-.315.1-.353a1.072,1.072,0,0,0-1.221.731c-.073.225.28.321.353.1Z" fill="#f49e78"/>
          </g>
          <g id="Grupo_459" data-name="Grupo 459" opacity="0.28">
            <path id="Caminho_9276" data-name="Caminho 9276" d="M138.246,201.965c.163.409-.559,1.076-1.661,1.313a3.008,3.008,0,0,1-1.4,0,1.047,1.047,0,0,1-.63-.4.362.362,0,0,1,.031-.352,1.107,1.107,0,0,1,.407-.365,4.544,4.544,0,0,1,1.256-.451C137.208,201.507,138.084,201.551,138.246,201.965Z" fill="#f28279"/>
          </g>
          <g id="Grupo_460" data-name="Grupo 460" opacity="0.28">
            <path id="Caminho_9277" data-name="Caminho 9277" d="M150.268,201.126c.163.409-.559,1.077-1.661,1.313a3.01,3.01,0,0,1-1.4,0,1.042,1.042,0,0,1-.629-.4.358.358,0,0,1,.03-.351,1.1,1.1,0,0,1,.407-.365,4.543,4.543,0,0,1,1.256-.451C149.23,200.668,150.106,200.712,150.268,201.126Z" fill="#f28279"/>
          </g>
          <g id="Grupo_461" data-name="Grupo 461">
            <path id="Caminho_9278" data-name="Caminho 9278" d="M130.212,198.847a1.16,1.16,0,0,0-1.039,1.369,1.326,1.326,0,0,0,1.234,1.253c.236.016.235-.35,0-.367-.969-.068-1.277-1.851-.195-1.889.235-.008.237-.375,0-.366Z" fill="#f49e78"/>
          </g>
          <g id="Grupo_462" data-name="Grupo 462">
            <path id="Caminho_9279" data-name="Caminho 9279" d="M129.234,199.847a1.682,1.682,0,0,0,1.434.631c.234-.015.236-.382,0-.367a1.342,1.342,0,0,1-1.175-.524c-.147-.184-.4.077-.259.26Z" fill="#f49e78"/>
          </g>
          <g id="Grupo_463" data-name="Grupo 463">
            <path id="Caminho_9280" data-name="Caminho 9280" d="M151.669,199.477c.793.188,1.231-.533,1.331-1.22a1.323,1.323,0,0,0-1.162-1.566c-.234-.021-.233.345,0,.366a.961.961,0,0,1,.817,1.042c-.042.466-.276,1.17-.889,1.024-.229-.054-.327.3-.1.354Z" fill="#f49e78"/>
          </g>
          <g id="Grupo_464" data-name="Grupo 464">
            <path id="Caminho_9281" data-name="Caminho 9281" d="M151.891,198.4a1.934,1.934,0,0,0,.631-1.176c.033-.231-.32-.33-.354-.1a1.622,1.622,0,0,1-.537,1.013c-.175.159.085.417.26.26Z" fill="#f49e78"/>
          </g>
        </g>
      </g>
    </g>
  </g>
</svg>
